<?xml version="1.0" encoding="utf-8"?>
<!-- Generator: Adobe Illustrator 27.5.0, SVG Export Plug-In . SVG Version: 6.00 Build 0)  -->
<svg version="1.1" xmlns="http://www.w3.org/2000/svg" xmlns:xlink="http://www.w3.org/1999/xlink" x="0px" y="0px"
	 viewBox="0 0 3710 3710" style="enable-background:new 0 0 3710 3710;" xml:space="preserve">
<g id="Background">
	<g>
		<g>
			<rect style="fill:none;" width="3710" height="3710"/>
		</g>
	</g>
</g>
<g id="Illustration">
	<g>
		<linearGradient id="SVGID_1_" gradientUnits="userSpaceOnUse" x1="3406.2791" y1="3619.3396" x2="1365.0879" y2="1416.149">
			<stop  offset="0" style="stop-color:#B37CFF"/>
			<stop  offset="1" style="stop-color:#F895E7"/>
		</linearGradient>
		<path style="opacity:0.3;fill:url(#SVGID_1_);" d="M3125.066,2362.648c-281.209,654.091-1023.509,935.038-1605.113,887.136
			c-158.802-13.079-478.313-39.395-727.791-274.168c-479.105-450.868-405.318-1393.307,53.323-1948.163
			c59.063-71.454,467.892-550.188,1104.974-543.78c466.437,4.692,793.825,266.893,833.634,299.558
			c50.29,41.265,161.208,139.323,261.172,294.887C3280.146,1443.637,3300.793,1953.906,3125.066,2362.648z"/>
		<g>
			
				<linearGradient id="SVGID_00000139989201197509380270000008356184461505275826_" gradientUnits="userSpaceOnUse" x1="-829.2855" y1="2715.6646" x2="-43.5624" y2="427.8194" gradientTransform="matrix(-1 0 0 1 573.9322 0)">
				<stop  offset="0" style="stop-color:#B37CFF"/>
				<stop  offset="1" style="stop-color:#F895E7"/>
			</linearGradient>
			<path style="fill:url(#SVGID_00000139989201197509380270000008356184461505275826_);" d="M1661.195,2546.703
				c0,0-204.578-1248.534-778.939-1958.617c-38.61-47.734-117.369-35.194-138.728,22.27
				C600.705,994.605,291.707,2167.897,1661.195,2546.703z"/>
			<path style="opacity:0.5;fill:#FFFFFF;" d="M1540.071,2459.448c2.889,3.13-1.619,7.511-4.924,4.787
				c-121.832-100.434-585.107-585.464-697.1-1501.331c-0.359-2.942,4.175-3.771,4.799-0.872
				C888.777,1175.58,1083.289,1964.583,1540.071,2459.448z"/>
		</g>
		<g>
			<g>
				<g>
					
						<linearGradient id="SVGID_00000033350304575322889470000002686638351258210706_" gradientUnits="userSpaceOnUse" x1="2409.6067" y1="2719.3442" x2="2990.9683" y2="333.3449">
						<stop  offset="0" style="stop-color:#A737D5"/>
						<stop  offset="1" style="stop-color:#EF497A"/>
					</linearGradient>
					<path style="fill:url(#SVGID_00000033350304575322889470000002686638351258210706_);" d="M2831.279,1300.489
						c-23.941-49.878-41.066-102.091-45.06-158.941c-10.064-143.242,73.205-275.153,134.377-398.481
						c56.222-113.35,98.01-282.251-91.7-267.221c-151.139,11.974-328.824,162.596-349.098,319.658
						c-23.99,185.889,66.506,420.302-40.788,589.158c-150.098,236.221-258.367,182.087-258.367,580.711
						c0,170.329,94.346,264.283,202.411,316.033c170.565,81.68,373.948,48.676,509.845-82.841
						c120.058-116.188,191.443-283.215,167.3-450.903C3035.814,1578.299,2902.979,1449.862,2831.279,1300.489z"/>
					
						<linearGradient id="SVGID_00000124130130494049442920000005927612544753652402_" gradientUnits="userSpaceOnUse" x1="2546.4031" y1="1563.7765" x2="2849.0435" y2="1563.7765">
						<stop  offset="0" style="stop-color:#CB236D"/>
						<stop  offset="1" style="stop-color:#4C246D"/>
					</linearGradient>
					<path style="fill:url(#SVGID_00000124130130494049442920000005927612544753652402_);" d="M2704.468,2582.118
						c-2.37,0-4.526-1.603-5.129-4.006c-94.023-375.306-145.205-715.517-152.121-1011.186
						c-5.537-236.755,17.135-445.692,67.386-621.004c85.828-299.432,220.445-395.599,226.135-399.546
						c2.397-1.66,5.692-1.068,7.357,1.328c1.667,2.397,1.074,5.693-1.321,7.362c-1.369,0.954-137.764,98.715-222.402,395.174
						c-78.227,274.005-126.942,778.401,85.229,1625.299c0.709,2.835-1.013,5.709-3.845,6.418
						C2705.325,2582.066,2704.893,2582.118,2704.468,2582.118z"/>
				</g>
				
					<linearGradient id="SVGID_00000111166169331688648400000002652188777687463821_" gradientUnits="userSpaceOnUse" x1="2914.657" y1="1195.7946" x2="2943.886" y2="971.7059">
					<stop  offset="0" style="stop-color:#A737D5"/>
					<stop  offset="1" style="stop-color:#EF497A"/>
				</linearGradient>
				<path style="fill:url(#SVGID_00000111166169331688648400000002652188777687463821_);" d="M2981.879,880.256
					c-7.308-1.982-15.336-2.601-23.886-1.618c-47.28,5.437-66.697,55.298-80.587,94.281
					c-11.896,33.384-25.914,73.906-18.889,110.074c7.595,39.103,49.122,71,79.254,31.298
					c34.25-45.128,85.645-114.416,85.956-174.218C3023.882,910.348,3007.192,887.122,2981.879,880.256z"/>
			</g>
			<g>
				
					<linearGradient id="SVGID_00000088841807062344008210000001660329590650354866_" gradientUnits="userSpaceOnUse" x1="3103.9912" y1="2516.9998" x2="3260.2124" y2="1319.302" gradientTransform="matrix(0.9734 0.2289 -0.2289 0.9734 198.9359 -279.6934)">
					<stop  offset="0" style="stop-color:#CE1567"/>
					<stop  offset="1" style="stop-color:#7A1DBC"/>
				</linearGradient>
				<path style="fill:url(#SVGID_00000088841807062344008210000001660329590650354866_);" d="M3246.427,2208.016
					c20.786-136.936-28.983-294.144-53.823-438.952c-13.134-76.564-19.208-152.546-6.911-229.681
					c12.226-76.692,48.261-159.637,15.035-236.045c-66.949-153.934-226.103-83.88-317.269,32.004
					c-105.792,134.477-134.713,354.222-174.895,523.433c-24.223,102.008-60.714,206.639-73.491,310.588
					c-21.168,172.201,17.767,291.754,100.143,372.492c79.009,77.441,199.34,93.498,295.994,39.67
					C3118.523,2532.898,3212.895,2428.92,3246.427,2208.016z"/>
				
					<linearGradient id="SVGID_00000053504077564064930850000010735798358967060633_" gradientUnits="userSpaceOnUse" x1="3083.4924" y1="1675.5652" x2="3331.0383" y2="1675.5652" gradientTransform="matrix(0.9734 0.2289 -0.2289 0.9734 198.9359 -279.6934)">
					<stop  offset="0" style="stop-color:#2B3582"/>
					<stop  offset="1" style="stop-color:#150E42"/>
				</linearGradient>
				<path style="fill:url(#SVGID_00000053504077564064930850000010735798358967060633_);" d="M2882.328,2843.136
					c-2.41,0-4.54-1.739-4.953-4.196c-0.35-2.076-34.948-210.863-35.853-499.018c-0.836-266.026,27.684-656.125,168.304-1003.823
					c1.043-2.575,3.975-3.816,6.549-2.777c2.575,1.041,3.818,3.974,2.777,6.549c-140.01,346.186-168.404,734.895-167.571,1000.02
					c0.902,287.339,35.365,495.311,35.713,497.379c0.462,2.739-1.385,5.334-4.124,5.794
					C2882.886,2843.112,2882.606,2843.136,2882.328,2843.136z"/>
			</g>
		</g>
		<g>
			<g>
				
					<linearGradient id="SVGID_00000058580141440753057020000011845380491649020551_" gradientUnits="userSpaceOnUse" x1="-3335.9299" y1="3164.5898" x2="-2168.7024" y2="1601.2151" gradientTransform="matrix(-1 0 0 1 -114.0489 0)">
					<stop  offset="0" style="stop-color:#FDF53F"/>
					<stop  offset="1" style="stop-color:#D93C65"/>
				</linearGradient>
				
					<rect x="2511.842" y="2054.738" style="fill:url(#SVGID_00000058580141440753057020000011845380491649020551_);" width="539.161" height="1039.811"/>
				<g style="opacity:0.89;">
					<path style="fill:#FFFFFF;" d="M2935.95,2812.131h-305.846c-0.62,0-1.123-0.503-1.123-1.123v-472.729
						c0-0.62,0.503-1.123,1.123-1.123h305.846c0.62,0,1.123,0.503,1.123,1.123v472.729
						C2937.073,2811.628,2936.57,2812.131,2935.95,2812.131z"/>
					<g>
						
							<linearGradient id="SVGID_00000115478497687935184640000016357890422654371740_" gradientUnits="userSpaceOnUse" x1="-2804.5945" y1="1850.2467" x2="-3086.5217" y2="3093.6147" gradientTransform="matrix(-1 0 0 1 -114.0489 0)">
							<stop  offset="0" style="stop-color:#FDF53F"/>
							<stop  offset="1" style="stop-color:#D93C65"/>
						</linearGradient>
						<path style="fill:url(#SVGID_00000115478497687935184640000016357890422654371740_);" d="M2913.984,2786.457h-118.371
							c-0.345,0-0.624-0.279-0.624-0.624v-422.379c0-0.344,0.28-0.624,0.624-0.624h118.371c0.345,0,0.624,0.28,0.624,0.624v422.379
							C2914.608,2786.177,2914.329,2786.457,2913.984,2786.457z"/>
						
							<linearGradient id="SVGID_00000156579311583960318750000013111935326817877688_" gradientUnits="userSpaceOnUse" x1="-2668.0815" y1="1881.2507" x2="-2950.0088" y2="3124.6187" gradientTransform="matrix(-1 0 0 1 -114.0489 0)">
							<stop  offset="0" style="stop-color:#FDF53F"/>
							<stop  offset="1" style="stop-color:#D93C65"/>
						</linearGradient>
						<path style="fill:url(#SVGID_00000156579311583960318750000013111935326817877688_);" d="M2770.441,2786.457H2652.07
							c-0.345,0-0.624-0.279-0.624-0.624v-422.379c0-0.344,0.279-0.624,0.624-0.624h118.371c0.344,0,0.624,0.28,0.624,0.624v422.379
							C2771.065,2786.177,2770.786,2786.457,2770.441,2786.457z"/>
					</g>
				</g>
				
					<linearGradient id="SVGID_00000147187647772681684580000012832149742636338321_" gradientUnits="userSpaceOnUse" x1="-3669.2644" y1="3374.8557" x2="-2570.8423" y2="1356.6718" gradientTransform="matrix(-1 0 0 1 -114.0489 0)">
					<stop  offset="0" style="stop-color:#53D8FF"/>
					<stop  offset="1" style="stop-color:#3840F7"/>
				</linearGradient>
				<path style="fill:url(#SVGID_00000147187647772681684580000012832149742636338321_);" d="M3152.515,2136.841h-666.271
					l-27.185-479.599l550.801-10.452l168.902,448.946C3187.655,2114.912,3173.653,2136.841,3152.515,2136.841z"/>
				
					<linearGradient id="SVGID_00000163048207431926923250000008864208042267534005_" gradientUnits="userSpaceOnUse" x1="-2761.9797" y1="163.3687" x2="-2874.4675" y2="1837.4669" gradientTransform="matrix(-1 0 0 1 -114.0489 0)">
					<stop  offset="0" style="stop-color:#53D8FF"/>
					<stop  offset="1" style="stop-color:#3840F7"/>
				</linearGradient>
				<path style="fill:url(#SVGID_00000163048207431926923250000008864208042267534005_);" d="M3012.119,1668.846l-529.444-5.918
					l3.323-53.601l494.848,3.774c19.106,1.184,33.694,16.695,32.581,34.644L3012.119,1668.846z"/>
			</g>
			<g>
				
					<linearGradient id="SVGID_00000140704085603276001870000013852870745461483678_" gradientUnits="userSpaceOnUse" x1="448.047" y1="3160.9807" x2="1615.2745" y2="1597.606">
					<stop  offset="0" style="stop-color:#FDF53F"/>
					<stop  offset="1" style="stop-color:#D93C65"/>
				</linearGradient>
				<polygon style="fill:url(#SVGID_00000140704085603276001870000013852870745461483678_);" points="618.925,3090.94 
					1158.086,3090.94 1158.086,2051.129 618.925,2051.129 				"/>
				<g style="opacity:0.89;">
					<path style="fill:#FFFFFF;" d="M733.978,2808.522h305.846c0.62,0,1.123-0.503,1.123-1.123v-472.729
						c0-0.62-0.503-1.123-1.123-1.123H733.978c-0.62,0-1.123,0.503-1.123,1.123v472.729
						C732.855,2808.019,733.358,2808.522,733.978,2808.522z"/>
					<g>
						
							<linearGradient id="SVGID_00000011735782001011917900000008918977518289997465_" gradientUnits="userSpaceOnUse" x1="979.3822" y1="1846.6376" x2="697.455" y2="3090.0054">
							<stop  offset="0" style="stop-color:#FDF53F"/>
							<stop  offset="1" style="stop-color:#D93C65"/>
						</linearGradient>
						<path style="fill:url(#SVGID_00000011735782001011917900000008918977518289997465_);" d="M755.944,2782.848h118.371
							c0.345,0,0.624-0.28,0.624-0.624v-422.378c0-0.345-0.28-0.624-0.624-0.624H755.944c-0.345,0-0.624,0.279-0.624,0.624v422.378
							C755.319,2782.568,755.599,2782.848,755.944,2782.848z"/>
						
							<linearGradient id="SVGID_00000099626889169295377360000014616088050974669200_" gradientUnits="userSpaceOnUse" x1="1115.8953" y1="1877.6417" x2="833.9681" y2="3121.0095">
							<stop  offset="0" style="stop-color:#FDF53F"/>
							<stop  offset="1" style="stop-color:#D93C65"/>
						</linearGradient>
						<path style="fill:url(#SVGID_00000099626889169295377360000014616088050974669200_);" d="M899.487,2782.848h118.371
							c0.345,0,0.624-0.28,0.624-0.624v-422.378c0-0.345-0.28-0.624-0.624-0.624H899.487c-0.345,0-0.624,0.279-0.624,0.624v422.378
							C898.862,2782.568,899.142,2782.848,899.487,2782.848z"/>
					</g>
				</g>
				
					<linearGradient id="SVGID_00000024694966909188580580000002164314359039032240_" gradientUnits="userSpaceOnUse" x1="114.7125" y1="3371.2468" x2="1213.1346" y2="1353.0626">
					<stop  offset="0" style="stop-color:#53D8FF"/>
					<stop  offset="1" style="stop-color:#3840F7"/>
				</linearGradient>
				<path style="fill:url(#SVGID_00000024694966909188580580000002164314359039032240_);" d="M517.413,2133.232h666.271
					l27.185-479.599l-550.801-10.452l-168.902,448.946C482.273,2111.303,496.276,2133.232,517.413,2133.232z"/>
				
					<linearGradient id="SVGID_00000053517430556157667250000001063407221164838843_" gradientUnits="userSpaceOnUse" x1="1021.9972" y1="159.7595" x2="909.5095" y2="1833.8577">
					<stop  offset="0" style="stop-color:#53D8FF"/>
					<stop  offset="1" style="stop-color:#3840F7"/>
				</linearGradient>
				<path style="fill:url(#SVGID_00000053517430556157667250000001063407221164838843_);" d="M657.808,1665.237l529.444-5.918
					l-3.323-53.601l-494.849,3.774c-19.107,1.185-33.694,16.695-32.581,34.644L657.808,1665.237z"/>
			</g>
			<path style="opacity:0.89;fill:#FFFFFF;" d="M2045.766,3138.094h-447.938v-72.817c0-1.751,1.419-3.171,3.171-3.171h441.597
				c1.751,0,3.17,1.419,3.17,3.17V3138.094z"/>
			<g>
				
					<linearGradient id="SVGID_00000124880069841121749180000012794893144971092407_" gradientUnits="userSpaceOnUse" x1="1209.5128" y1="1823.4648" x2="2677.4844" y2="3564.5464">
					<stop  offset="0" style="stop-color:#FDF53F"/>
					<stop  offset="1" style="stop-color:#D93C65"/>
				</linearGradient>
				<path style="fill:url(#SVGID_00000124880069841121749180000012794893144971092407_);" d="M1083.569,1988.188v1148.645h1471.076
					c14.937,0,27.045-12.109,27.045-27.045v-1121.6H1083.569z"/>
				
					<linearGradient id="SVGID_00000148641773593691473960000016736318612824938428_" gradientUnits="userSpaceOnUse" x1="2671.3113" y1="1858.5002" x2="2021.3851" y2="2551.9971">
					<stop  offset="0" style="stop-color:#FDF53F"/>
					<stop  offset="1" style="stop-color:#D93C65"/>
				</linearGradient>
				<path style="fill:url(#SVGID_00000148641773593691473960000016736318612824938428_);" d="M1974.664,3062.106H1668.93v-592.875
					c0-1.966,1.594-3.56,3.56-3.56h298.614c1.966,0,3.56,1.594,3.56,3.56V3062.106z"/>
				
					<linearGradient id="SVGID_00000045616055788786636040000015449497626718868138_" gradientUnits="userSpaceOnUse" x1="2601.7905" y1="1360.3063" x2="1671.0533" y2="3036.7224">
					<stop  offset="0" style="stop-color:#FDF53F"/>
					<stop  offset="1" style="stop-color:#D93C65"/>
				</linearGradient>
				<path style="fill:url(#SVGID_00000045616055788786636040000015449497626718868138_);" d="M1963.136,3039.618h-282.679v-547.898
					c0-1.966,1.594-3.56,3.56-3.56h275.559c1.966,0,3.56,1.594,3.56,3.56V3039.618z"/>
				<path style="opacity:0.89;fill:#FFFFFF;" d="M1953.077,2425.526h-262.559c-11.922,0-21.588-9.665-21.588-21.587v-18.856
					c0-11.342,8.777-20.75,20.091-21.536l262.559-18.239c12.482-0.867,23.084,9.024,23.084,21.536v37.094
					C1974.664,2415.861,1964.999,2425.526,1953.077,2425.526z"/>
				
					<linearGradient id="SVGID_00000007396790550425445910000010879386742437407104_" gradientUnits="userSpaceOnUse" x1="1832.1771" y1="2727.0876" x2="1817.741" y2="3293.7273">
					<stop  offset="0" style="stop-color:#FDF53F"/>
					<stop  offset="1" style="stop-color:#D93C65"/>
				</linearGradient>
				<path style="fill:url(#SVGID_00000007396790550425445910000010879386742437407104_);" d="M1972.605,3099.048h-298.015
					c-13.532,0-24.503-10.97-24.503-24.502v-21.402c0-12.873,9.805-48.481,22.647-49.374l298.171,4.228
					c14.167-0.984,26.201,10.243,26.201,24.444v42.104C1997.108,3088.079,1986.137,3099.048,1972.605,3099.048z"/>
				
					<linearGradient id="SVGID_00000129164714908034782130000015011750795669656452_" gradientUnits="userSpaceOnUse" x1="1827.2676" y1="2873.2375" x2="1820.0488" y2="3468.7534">
					<stop  offset="0" style="stop-color:#FDF53F"/>
					<stop  offset="1" style="stop-color:#D93C65"/>
				</linearGradient>
				<path style="fill:url(#SVGID_00000129164714908034782130000015011750795669656452_);" d="M1973.402,3145.655h-298.015
					c-13.532,0-24.503-10.97-24.503-24.502v-21.402c0-12.874,2.816-36.752,15.659-37.644l305.16-7.501
					c14.167-0.984,26.201,10.243,26.201,24.444v42.104C1997.904,3134.686,1986.934,3145.655,1973.402,3145.655z"/>
				<g>
					<path style="fill:#FFFFFF;" d="M2502.128,3007.358h-429.917c-1.736,0-3.142-1.407-3.142-3.142v-691.802
						c0-1.735,1.407-3.142,3.142-3.142h429.917c1.736,0,3.142,1.407,3.142,3.142v691.802
						C2505.27,3005.951,2503.863,3007.358,2502.128,3007.358z"/>
					
						<linearGradient id="SVGID_00000002344205003892688360000018329140103288535450_" gradientUnits="userSpaceOnUse" x1="2442.4126" y1="2008.9944" x2="2163.2798" y2="3176.2783">
						<stop  offset="0" style="stop-color:#FDF53F"/>
						<stop  offset="1" style="stop-color:#D93C65"/>
					</linearGradient>
					<path style="fill:url(#SVGID_00000002344205003892688360000018329140103288535450_);" d="M2477.269,2981.581h-381.098
						c-1.621,0-2.934-1.314-2.934-2.934v-637.149c0-1.621,1.314-2.934,2.934-2.934h381.098c1.621,0,2.934,1.314,2.934,2.934v637.149
						C2480.203,2980.267,2478.89,2981.581,2477.269,2981.581z"/>
					<rect x="2267.667" y="2329.726" style="fill:#FFFFFF;" width="22.187" height="677.632"/>
				</g>
				<g>
					<path style="fill:#FFFFFF;" d="M1591.145,3007.358h-429.917c-1.735,0-3.142-1.407-3.142-3.142v-691.802
						c0-1.735,1.407-3.142,3.142-3.142h429.917c1.735,0,3.142,1.407,3.142,3.142v691.802
						C1594.288,3005.951,1592.881,3007.358,1591.145,3007.358z"/>
					
						<linearGradient id="SVGID_00000150063351060754814300000008048842559981186726_" gradientUnits="userSpaceOnUse" x1="1674.7521" y1="1875.458" x2="1220.8682" y2="3066.4504">
						<stop  offset="0" style="stop-color:#FDF53F"/>
						<stop  offset="1" style="stop-color:#D93C65"/>
					</linearGradient>
					<path style="fill:url(#SVGID_00000150063351060754814300000008048842559981186726_);" d="M1566.287,2981.581h-381.098
						c-1.621,0-2.934-1.314-2.934-2.934v-637.149c0-1.621,1.314-2.934,2.934-2.934h381.098c1.621,0,2.934,1.314,2.934,2.934v637.149
						C1569.221,2980.267,1567.907,2981.581,1566.287,2981.581z"/>
					<rect x="1356.684" y="2329.726" style="fill:#FFFFFF;" width="22.187" height="677.632"/>
				</g>
				<g>
					
						<linearGradient id="SVGID_00000037693683449329467790000000160953712663634832_" gradientUnits="userSpaceOnUse" x1="1338.9891" y1="1064.2981" x2="2519.9565" y2="2464.9795">
						<stop  offset="0" style="stop-color:#FDF53F"/>
						<stop  offset="1" style="stop-color:#D93C65"/>
					</linearGradient>
					<polygon style="fill:url(#SVGID_00000037693683449329467790000000160953712663634832_);" points="2599.2,1345.715 
						2586.472,1336.095 2586.472,1322.712 2568.765,1322.712 1832.63,766.334 1088.35,1322.712 1088.35,1988.187 2586.472,1988.187 
						2586.472,1414.337 					"/>
					<g>
						
							<linearGradient id="SVGID_00000116204869152820477060000007461390270568576384_" gradientUnits="userSpaceOnUse" x1="2229.1218" y1="1106.1974" x2="2213.7888" y2="653.8788">
							<stop  offset="0" style="stop-color:#53D8FF"/>
							<stop  offset="1" style="stop-color:#3840F7"/>
						</linearGradient>
						
							<rect x="2161.256" y="831.045" style="fill:url(#SVGID_00000116204869152820477060000007461390270568576384_);" width="123.917" height="201.764"/>
						
							<linearGradient id="SVGID_00000152950601670237322010000005112867314034312106_" gradientUnits="userSpaceOnUse" x1="2229.5481" y1="945.9259" x2="2214.144" y2="491.5127">
							<stop  offset="0" style="stop-color:#53D8FF"/>
							<stop  offset="1" style="stop-color:#3840F7"/>
						</linearGradient>
						<path style="fill:url(#SVGID_00000152950601670237322010000005112867314034312106_);" d="M2326.012,863.737h-200.291v-55.863
							c0-3.366,2.729-6.096,6.095-6.096h184.918c5.124,0,9.278,4.154,9.278,9.278V863.737z"/>
						
							<linearGradient id="SVGID_00000098906471166878004300000018117547834612116656_" gradientUnits="userSpaceOnUse" x1="1899.1139" y1="467.3396" x2="1816.1023" y2="1654.7585">
							<stop  offset="0" style="stop-color:#53D8FF"/>
							<stop  offset="1" style="stop-color:#3840F7"/>
						</linearGradient>
						<path style="fill:url(#SVGID_00000098906471166878004300000018117547834612116656_);" d="M1038.26,1428.674l794.987-609.68
							l754.624,585.338c27.428,21.275,67.66,6.375,74.614-27.634l10.585-51.771l-839.822-639.753l-812.911,620.908
							c-14.555,11.117-19.837,30.62-12.88,47.563L1038.26,1428.674z"/>
					</g>
					<g style="opacity:0.89;">
						<path style="fill:#FFFFFF;" d="M1673.859,1889.575h305.846c0.62,0,1.123-0.503,1.123-1.123v-472.729
							c0-0.62-0.503-1.123-1.123-1.123h-305.846c-0.62,0-1.123,0.503-1.123,1.123v472.729
							C1672.736,1889.072,1673.239,1889.575,1673.859,1889.575z"/>
						<g>
							
								<linearGradient id="SVGID_00000036940314778661551360000003438495573366387900_" gradientUnits="userSpaceOnUse" x1="1871.8082" y1="1098.8301" x2="1665.8033" y2="2074.6458">
								<stop  offset="0" style="stop-color:#FDF53F"/>
								<stop  offset="1" style="stop-color:#D93C65"/>
							</linearGradient>
							<path style="fill:url(#SVGID_00000036940314778661551360000003438495573366387900_);" d="M1695.824,1863.901h118.371
								c0.345,0,0.624-0.279,0.624-0.624v-422.378c0-0.345-0.279-0.624-0.624-0.624h-118.371c-0.345,0-0.624,0.279-0.624,0.624
								v422.378C1695.2,1863.621,1695.48,1863.901,1695.824,1863.901z"/>
							
								<linearGradient id="SVGID_00000050648467046919387370000016999248118400327054_" gradientUnits="userSpaceOnUse" x1="2009.2184" y1="1127.8807" x2="1803.2135" y2="2103.6965">
								<stop  offset="0" style="stop-color:#FDF53F"/>
								<stop  offset="1" style="stop-color:#D93C65"/>
							</linearGradient>
							<path style="fill:url(#SVGID_00000050648467046919387370000016999248118400327054_);" d="M1839.368,1863.901h118.371
								c0.345,0,0.624-0.279,0.624-0.624v-422.378c0-0.345-0.279-0.624-0.624-0.624h-118.371c-0.345,0-0.624,0.279-0.624,0.624
								v422.378C1838.743,1863.621,1839.023,1863.901,1839.368,1863.901z"/>
						</g>
					</g>
					<g style="opacity:0.89;">
						<path style="fill:#FFFFFF;" d="M1241.489,1892.937h305.846c0.62,0,1.123-0.503,1.123-1.123v-472.729
							c0-0.62-0.503-1.123-1.123-1.123h-305.846c-0.62,0-1.123,0.503-1.123,1.123v472.729
							C1240.366,1892.435,1240.869,1892.937,1241.489,1892.937z"/>
						<g>
							
								<linearGradient id="SVGID_00000051357879066969477780000011080172762368239751_" gradientUnits="userSpaceOnUse" x1="1452.1384" y1="1113.7157" x2="1235.2582" y2="2020.9993">
								<stop  offset="0" style="stop-color:#FDF53F"/>
								<stop  offset="1" style="stop-color:#D93C65"/>
							</linearGradient>
							<path style="fill:url(#SVGID_00000051357879066969477780000011080172762368239751_);" d="M1263.455,1867.263h118.371
								c0.345,0,0.624-0.279,0.624-0.624V1444.26c0-0.345-0.279-0.624-0.624-0.624h-118.371c-0.345,0-0.624,0.279-0.624,0.624
								v422.378C1262.831,1866.984,1263.11,1867.263,1263.455,1867.263z"/>
							
								<linearGradient id="SVGID_00000093150287822966770740000017718172969549820823_" gradientUnits="userSpaceOnUse" x1="1587.9108" y1="1146.2233" x2="1371.0306" y2="2053.5068">
								<stop  offset="0" style="stop-color:#FDF53F"/>
								<stop  offset="1" style="stop-color:#D93C65"/>
							</linearGradient>
							<path style="fill:url(#SVGID_00000093150287822966770740000017718172969549820823_);" d="M1406.998,1867.263h118.371
								c0.345,0,0.624-0.279,0.624-0.624V1444.26c0-0.345-0.279-0.624-0.624-0.624h-118.371c-0.345,0-0.624,0.279-0.624,0.624
								v422.378C1406.374,1866.984,1406.653,1867.263,1406.998,1867.263z"/>
						</g>
					</g>
					<g style="opacity:0.89;">
						<path style="fill:#FFFFFF;" d="M2087.489,1897.23h305.846c0.62,0,1.123-0.503,1.123-1.123v-472.729
							c0-0.62-0.503-1.123-1.123-1.123h-305.846c-0.62,0-1.123,0.503-1.123,1.123v472.729
							C2086.365,1896.728,2086.868,1897.23,2087.489,1897.23z"/>
						<g>
							
								<linearGradient id="SVGID_00000164484459638723902050000001682260017377423278_" gradientUnits="userSpaceOnUse" x1="2287.6995" y1="1106.9639" x2="2085.3037" y2="2046.6613">
								<stop  offset="0" style="stop-color:#FDF53F"/>
								<stop  offset="1" style="stop-color:#D93C65"/>
							</linearGradient>
							<path style="fill:url(#SVGID_00000164484459638723902050000001682260017377423278_);" d="M2109.454,1871.556h118.371
								c0.345,0,0.624-0.279,0.624-0.624v-422.378c0-0.345-0.28-0.624-0.624-0.624h-118.371c-0.345,0-0.624,0.279-0.624,0.624
								v422.378C2108.83,1871.277,2109.11,1871.556,2109.454,1871.556z"/>
							
								<linearGradient id="SVGID_00000003812848432523020600000014937991747166112150_" gradientUnits="userSpaceOnUse" x1="2424.8699" y1="1136.5513" x2="2222.4744" y2="2076.2485">
								<stop  offset="0" style="stop-color:#FDF53F"/>
								<stop  offset="1" style="stop-color:#D93C65"/>
							</linearGradient>
							<path style="fill:url(#SVGID_00000003812848432523020600000014937991747166112150_);" d="M2252.998,1871.556h118.371
								c0.345,0,0.624-0.279,0.624-0.624v-422.378c0-0.345-0.279-0.624-0.624-0.624h-118.371c-0.345,0-0.624,0.279-0.624,0.624
								v422.378C2252.373,1871.277,2252.653,1871.556,2252.998,1871.556z"/>
						</g>
					</g>
				</g>
				
					<linearGradient id="SVGID_00000057852036331051012530000004958751450703906233_" gradientUnits="userSpaceOnUse" x1="1851.093" y1="1658.7065" x2="1825.4795" y2="2156.3491">
					<stop  offset="0" style="stop-color:#FDF53F"/>
					<stop  offset="1" style="stop-color:#D93C65"/>
				</linearGradient>
				<path style="fill:url(#SVGID_00000057852036331051012530000004958751450703906233_);" d="M2615.621,2060.327H1049.638
					c-4.8,0-8.691-3.891-8.691-8.691v-68.417c0-4.8,3.891-8.691,8.691-8.691h1565.983c4.8,0,8.691,3.891,8.691,8.691v68.417
					C2624.313,2056.436,2620.421,2060.327,2615.621,2060.327z"/>
			</g>
		</g>
		<g>
			<g>
				
					<linearGradient id="SVGID_00000169516729745723822030000001745862763349868958_" gradientUnits="userSpaceOnUse" x1="2423.0376" y1="1702.7692" x2="-29.9425" y2="3729.1465">
					<stop  offset="0" style="stop-color:#233894"/>
					<stop  offset="0.9964" style="stop-color:#DD397A"/>
				</linearGradient>
				<path style="fill:url(#SVGID_00000169516729745723822030000001745862763349868958_);" d="M1726.441,2966.331H793.905
					c-18.464,0-33.433-14.968-33.433-33.433v-539.001c0-18.465,14.968-33.433,33.433-33.433h932.536
					c18.464,0,33.433,14.968,33.433,33.433v539.001C1759.873,2951.363,1744.905,2966.331,1726.441,2966.331z"/>
				<path style="fill:#FFFFFF;" d="M1704.285,2949.13H818.204c-18.464,0-33.433-14.968-33.433-33.433v-495.043
					c0-18.464,14.969-33.433,33.433-33.433h886.081c18.464,0,33.433,14.969,33.433,33.433v495.043
					C1737.718,2934.161,1722.75,2949.13,1704.285,2949.13z"/>
				<g>
					
						<linearGradient id="SVGID_00000163071504958879934840000017572366862462634124_" gradientUnits="userSpaceOnUse" x1="4574.4771" y1="4483.6431" x2="854.8091" y2="2529.1914">
						<stop  offset="0" style="stop-color:#FDF53F"/>
						<stop  offset="1" style="stop-color:#D93C65"/>
					</linearGradient>
					<path style="fill:url(#SVGID_00000163071504958879934840000017572366862462634124_);" d="M958.529,2539.922v36.89h-61.483
						v68.861H847.86v-179.53h115.587v39.349h-66.401v34.43H958.529z"/>
					
						<linearGradient id="SVGID_00000017508105789431213820000013960959248333857443_" gradientUnits="userSpaceOnUse" x1="4611.5142" y1="4413.1665" x2="891.8439" y2="2458.7136">
						<stop  offset="0" style="stop-color:#FDF53F"/>
						<stop  offset="1" style="stop-color:#D93C65"/>
					</linearGradient>
					<path style="fill:url(#SVGID_00000017508105789431213820000013960959248333857443_);" d="M1009.559,2488.399
						c16.639-16.477,39.061-24.716,67.262-24.716c28.198,0,50.62,8.239,67.262,24.716c16.639,16.478,24.962,38.98,24.962,67.508
						s-8.323,51.031-24.962,67.508c-16.642,16.478-39.064,24.716-67.262,24.716c-28.201,0-50.623-8.239-67.262-24.716
						c-16.642-16.477-24.962-38.98-24.962-67.508S992.917,2504.876,1009.559,2488.399z M1035.013,2555.907
						c0,34.43,13.934,51.646,41.808,51.646c27.872,0,41.809-17.215,41.809-51.646s-13.937-51.646-41.809-51.646
						C1048.947,2504.261,1035.013,2521.477,1035.013,2555.907z"/>
					
						<linearGradient id="SVGID_00000032624313844254889400000012078029692498367145_" gradientUnits="userSpaceOnUse" x1="4647.5542" y1="4344.5791" x2="927.8867" y2="2390.1277">
						<stop  offset="0" style="stop-color:#FDF53F"/>
						<stop  offset="1" style="stop-color:#D93C65"/>
					</linearGradient>
					<path style="fill:url(#SVGID_00000032624313844254889400000012078029692498367145_);" d="M1241.842,2582.959v62.713h-47.956
						v-178.301c21.311-2.459,42.626-3.689,63.942-3.689c49.186,0,73.78,18.445,73.78,55.335c0,10.329-3.198,19.92-9.592,28.774
						c-6.394,8.854-14.675,15.167-24.839,18.937v0.492c4.919,2.79,9.015,6.356,12.296,10.698c3.278,4.346,6.394,10.537,9.346,18.568
						l17.707,49.186h-50.416l-15.248-46.727c-1.806-5.737-4.1-9.837-6.885-12.297c-2.79-2.459-6.479-3.689-11.067-3.689H1241.842z
						 M1241.842,2547.299h13.526c8.362,0,14.959-2.09,19.798-6.271c4.834-4.181,7.254-9.876,7.254-17.092
						c0-15.574-9.018-23.363-27.052-23.363c-5.25,0-9.757,0.411-13.526,1.229V2547.299z"/>
					
						<linearGradient id="SVGID_00000162345093505065784140000018428346935718744723_" gradientUnits="userSpaceOnUse" x1="4399.25" y1="4523.0742" x2="679.5823" y2="2568.6228">
						<stop  offset="0" style="stop-color:#FDF53F"/>
						<stop  offset="1" style="stop-color:#D93C65"/>
					</linearGradient>
					<path style="fill:url(#SVGID_00000162345093505065784140000018428346935718744723_);" d="M1089.043,2811.637v62.713h-47.956
						v-178.301c21.311-2.459,42.626-3.689,63.942-3.689c49.186,0,73.78,18.445,73.78,55.334c0,10.329-3.198,19.921-9.592,28.774
						c-6.394,8.854-14.675,15.167-24.839,18.937v0.492c4.919,2.79,9.015,6.356,12.297,10.698c3.278,4.346,6.394,10.536,9.345,18.568
						l17.707,49.187h-50.416l-15.248-46.727c-1.806-5.737-4.1-9.838-6.885-12.297c-2.79-2.459-6.479-3.689-11.067-3.689H1089.043z
						 M1089.043,2775.977h13.526c8.362,0,14.959-2.09,19.798-6.271c4.834-4.181,7.254-9.876,7.254-17.093
						c0-15.574-9.018-23.363-27.052-23.363c-5.25,0-9.757,0.411-13.526,1.229V2775.977z"/>
					
						<linearGradient id="SVGID_00000052071164119390886400000001793267297178658215_" gradientUnits="userSpaceOnUse" x1="4437.8101" y1="4449.6909" x2="718.1339" y2="2495.2349">
						<stop  offset="0" style="stop-color:#FDF53F"/>
						<stop  offset="1" style="stop-color:#D93C65"/>
					</linearGradient>
					<path style="fill:url(#SVGID_00000052071164119390886400000001793267297178658215_);" d="M1322.922,2763.68v36.89h-63.942V2835
						h68.86v39.349h-118.047v-179.53h118.047v39.349h-68.86v29.512H1322.922z"/>
					
						<linearGradient id="SVGID_00000078026049481477226260000007102735903735912630_" gradientUnits="userSpaceOnUse" x1="4474.04" y1="4380.7275" x2="754.364" y2="2426.2717">
						<stop  offset="0" style="stop-color:#FDF53F"/>
						<stop  offset="1" style="stop-color:#D93C65"/>
					</linearGradient>
					<path style="fill:url(#SVGID_00000078026049481477226260000007102735903735912630_);" d="M1462.857,2793.192h0.492v-98.373
						h47.957v179.53h-47.957l-53.613-98.373h-0.492v98.373h-47.956v-179.53h47.956L1462.857,2793.192z"/>
					
						<linearGradient id="SVGID_00000054249579340570373890000000593750093392856753_" gradientUnits="userSpaceOnUse" x1="4517.9443" y1="4297.1895" x2="798.2747" y2="2342.7368">
						<stop  offset="0" style="stop-color:#FDF53F"/>
						<stop  offset="1" style="stop-color:#D93C65"/>
					</linearGradient>
					<path style="fill:url(#SVGID_00000054249579340570373890000000593750093392856753_);" d="M1688.621,2694.819v40.579h-48.695
						v138.951h-50.169v-138.951h-48.695v-40.579H1688.621z"/>
				</g>
			</g>
			
				<linearGradient id="SVGID_00000016062421464792262860000001281986100473718671_" gradientUnits="userSpaceOnUse" x1="1617.1017" y1="2047.2144" x2="1617.1017" y2="3012.8823">
				<stop  offset="0" style="stop-color:#233894"/>
				<stop  offset="0.9964" style="stop-color:#DD397A"/>
			</linearGradient>
			<path style="fill:url(#SVGID_00000016062421464792262860000001281986100473718671_);" d="M1630.617,2402.634h-27.03
				c-1.787,0-3.25-1.462-3.25-3.25v-208.093c0-1.788,1.463-3.25,3.25-3.25h27.03c1.787,0,3.25,1.462,3.25,3.25v208.093
				C1633.867,2401.172,1632.404,2402.634,1630.617,2402.634z"/>
			
				<linearGradient id="SVGID_00000163062031064385353970000005866232277222981512_" gradientUnits="userSpaceOnUse" x1="906.2625" y1="2047.2142" x2="906.2625" y2="3012.8828">
				<stop  offset="0" style="stop-color:#233894"/>
				<stop  offset="0.9964" style="stop-color:#DD397A"/>
			</linearGradient>
			<path style="fill:url(#SVGID_00000163062031064385353970000005866232277222981512_);" d="M919.778,2399.281h-27.03
				c-1.787,0-3.25-1.462-3.25-3.25v-208.093c0-1.787,1.463-3.25,3.25-3.25h27.03c1.788,0,3.25,1.463,3.25,3.25v208.093
				C923.028,2397.819,921.565,2399.281,919.778,2399.281z"/>
			<g>
				
					<linearGradient id="SVGID_00000065046331265902209690000010219297182888863935_" gradientUnits="userSpaceOnUse" x1="1272.3612" y1="2279.2622" x2="1262.3018" y2="1942.84">
					<stop  offset="0" style="stop-color:#233894"/>
					<stop  offset="0.9964" style="stop-color:#DD397A"/>
				</linearGradient>
				<polygon style="fill:url(#SVGID_00000065046331265902209690000010219297182888863935_);" points="2007.728,2108.686 
					1964.139,2175.904 1964.139,2129.864 563.679,2128.838 525.695,2110.922 524.577,2128.804 564.813,2209.836 1964.139,2214.865 
					2011.081,2126.569 				"/>
				
					<linearGradient id="SVGID_00000177473194571729079760000006184810732029471882_" gradientUnits="userSpaceOnUse" x1="1167.3878" y1="2699.1235" x2="1302.9902" y2="1894.5503">
					<stop  offset="0" style="stop-color:#233894"/>
					<stop  offset="0.9964" style="stop-color:#DD397A"/>
				</linearGradient>
				<polygon style="fill:url(#SVGID_00000177473194571729079760000006184810732029471882_);" points="1957.433,2201.453 
					571.52,2196.982 525.695,2110.922 2007.728,2108.686 				"/>
			</g>
			<g>
				
					<linearGradient id="SVGID_00000102501958931674630450000011895931575703891587_" gradientUnits="userSpaceOnUse" x1="475.4162" y1="2592.9023" x2="1371.7899" y2="2431.9568">
					<stop  offset="0" style="stop-color:#233894"/>
					<stop  offset="0.9964" style="stop-color:#DD397A"/>
				</linearGradient>
				<polygon style="fill:url(#SVGID_00000102501958931674630450000011895931575703891587_);" points="715.864,3150.808 
					615.279,3150.808 615.109,1966.742 715.864,2037.155 				"/>
				
					<linearGradient id="SVGID_00000057856294042460906530000001444321542764428442_" gradientUnits="userSpaceOnUse" x1="950.5464" y1="2732.9353" x2="387.724" y2="2437.2075">
					<stop  offset="0" style="stop-color:#233894"/>
					<stop  offset="0.9964" style="stop-color:#DD397A"/>
				</linearGradient>
				<polygon style="fill:url(#SVGID_00000057856294042460906530000001444321542764428442_);" points="730.394,3151.925 
					629.808,3151.925 629.639,1976.801 730.394,2038.273 				"/>
			</g>
			<g>
				
					<linearGradient id="SVGID_00000056397738003714321670000015934023568886695082_" gradientUnits="userSpaceOnUse" x1="681.1314" y1="2034.5486" x2="662.131" y2="2255.8474">
					<stop  offset="0" style="stop-color:#FDF53F"/>
					<stop  offset="1" style="stop-color:#D93C65"/>
				</linearGradient>
				
					<circle style="fill:url(#SVGID_00000056397738003714321670000015934023568886695082_);" cx="671.551" cy="2146.128" r="19.559"/>
				
					<linearGradient id="SVGID_00000021841833530433644350000009318793295603954097_" gradientUnits="userSpaceOnUse" x1="675.524" y1="2103.2117" x2="662.4952" y2="2254.9595">
					<stop  offset="0" style="stop-color:#FDF53F"/>
					<stop  offset="1" style="stop-color:#D93C65"/>
				</linearGradient>
				
					<circle style="fill:url(#SVGID_00000021841833530433644350000009318793295603954097_);" cx="671.551" cy="2149.481" r="13.412"/>
			</g>
		</g>
		<g>
			<g>
				
					<linearGradient id="SVGID_00000074443827667239065030000009542464484865479867_" gradientUnits="userSpaceOnUse" x1="-2042.0179" y1="2054.2058" x2="-2681.2043" y2="2941.5461" gradientTransform="matrix(-0.9619 -0.2734 -0.2734 0.9619 -976.1847 -127.927)">
					<stop  offset="0" style="stop-color:#53D8FF"/>
					<stop  offset="1" style="stop-color:#3840F7"/>
				</linearGradient>
				<path style="fill:url(#SVGID_00000074443827667239065030000009542464484865479867_);" d="M805.818,3197.119
					c0,0-166.598,103.789-255.736,14.572c-71.639-71.702,45.795-24.906,154.78-18.184c8.553,0.528,9.866-12.107,1.387-13.346
					c-83.304-12.176-208.272-38.297-217.65-86.204c-14.156-72.321,11.166-42.973,106.324-6.058
					c95.159,36.915,120.855,18.131,61.32-15.041c-59.535-33.171-170.493-28.773-185.35-66.415
					c-14.857-37.642-10.335-102.692-12.257-131.767c-1.922-29.075,140.443-31.413,166.038,13.314
					c25.595,44.727,32.393,130.254,70.442,156.331c38.05,26.078,12.25-55.201-5.609-98.445
					c-17.859-43.244-21.458-72.633,31.884-48.366c53.341,24.266,63.468,100.665,54.91,153.112c-8.558,52.447,3,86.427,9.252,61.054
					c6.252-25.374,19.034-105.002,7.804-133.229C782.127,2950.221,901.262,3014.636,805.818,3197.119z"/>
				<path style="opacity:0.53;fill:#FFFFFF;" d="M795.115,3195.519c-0.618,0.053-1.245-0.225-1.606-0.786
					c-81.801-126.199-244.729-247.339-246.365-248.547c-0.771-0.569-0.933-1.653-0.364-2.425c0.567-0.766,1.653-0.932,2.424-0.363
					c1.642,1.21,165.068,122.715,247.215,249.452c0.521,0.801,0.291,1.875-0.512,2.396
					C795.659,3195.407,795.388,3195.495,795.115,3195.519z"/>
			</g>
			<g>
				
					<linearGradient id="SVGID_00000140003543835705961250000017010095947223717300_" gradientUnits="userSpaceOnUse" x1="-2753.272" y1="3205.4351" x2="-2252.2163" y2="2570.2598" gradientTransform="matrix(0.9919 -0.1267 0.1267 0.9919 3018.5852 -270.6762)">
					<stop  offset="0" style="stop-color:#53D8FF"/>
					<stop  offset="1" style="stop-color:#3840F7"/>
				</linearGradient>
				<path style="fill:url(#SVGID_00000140003543835705961250000017010095947223717300_);" d="M908.336,3237.751
					c0,0-214.768,7.086-250.367-126.313c-28.61-107.211,57.051,1.486,156.662,67.574c7.817,5.186,15.985-6.07,8.627-11.89
					c-72.283-57.185-176.414-150.415-159.052-200.958c26.209-76.301,34.129-34.611,104.092,52.516s104.61,83.404,66.359,19.344
					c-38.25-64.06-145.825-120.689-139.281-164.505c6.544-43.816,46.472-102.993,60.581-131.603
					c14.109-28.61,150.323,47.179,150.074,103.595c-0.249,56.416-40.668,141.201-18.894,186.766
					c21.774,45.565,41.856-45.607,48.624-96.379c6.768-50.771,19.459-80.597,56.72-28.371
					c37.26,52.226,4.997,130.184-31.851,175.203c-36.848,45.019-44.512,83.559-24.684,62.935
					c19.828-20.623,75.574-89.09,80.396-121.996C1021.164,2990.763,1098.784,3117.092,908.336,3237.751z"/>
				<path style="opacity:0.53;fill:#FFFFFF;" d="M899.069,3230.369c-0.615-0.288-1.056-0.896-1.091-1.624
					c-8.381-164.431-96.428-368.518-97.317-370.559c-0.418-0.962,0.021-2.078,0.984-2.499c0.957-0.416,2.078,0.023,2.496,0.985
					c0.892,2.047,89.211,206.752,97.626,371.883c0.054,1.045-0.751,1.936-1.798,1.991
					C899.647,3230.562,899.341,3230.497,899.069,3230.369z"/>
			</g>
		</g>
	</g>
</g>
</svg>
